# xmcd
#
# Track frame offsets: 
#        150
#        18871
#        35185
#        53760
#        76456
#        99542
#        127256
#        155244
#        175877
#        195141
#        219899
#
# Disc length: 3243 seconds
#
# Revision: 1
# Processed by: cddbd v1.5.2PL0 Copyright (c) Steve Scherf et al.
# Submitted via: ExactAudioCopy v0.95b4
#
DISCID=900ca90b
DTITLE=Imre Kertész - Roman eines Schicksallosen CD2
DYEAR=1999
DGENRE=Lesung
TTITLE0=Roman eines Schicksallosen 14
TTITLE1=Roman eines Schicksallosen 15
TTITLE2=Roman eines Schicksallosen 16
TTITLE3=Roman eines Schicksallosen 17
TTITLE4=Roman eines Schicksallosen 18
TTITLE5=Roman eines Schicksallosen 19
TTITLE6=Roman eines Schicksallosen 20
TTITLE7=Roman eines Schicksallosen 21
TTITLE8=Roman eines Schicksallosen 22
TTITLE9=Roman eines Schicksallosen 23
TTITLE10=Roman eines Schicksallosen 24
EXTD=YEAR: 1999
EXTT0=
EXTT1=
EXTT2=
EXTT3=
EXTT4=
EXTT5=
EXTT6=
EXTT7=
EXTT8=
EXTT9=
EXTT10=
PLAYORDER=
